<svg width="236" height="42" viewBox="0 0 236 42" fill="none" xmlns="http://www.w3.org/2000/svg">
<path d="M66.616 29.288C65.48 29.288 64.456 29.112 63.544 28.76C62.632 28.392 61.856 27.856 61.216 27.152C60.576 26.432 60.08 25.544 59.728 24.488C59.376 23.416 59.2 22.168 59.2 20.744C59.2 19.336 59.376 18.088 59.728 17C60.08 15.896 60.576 14.976 61.216 14.24C61.856 13.488 62.632 12.92 63.544 12.536C64.456 12.152 65.48 11.96 66.616 11.96C68.168 11.96 69.448 12.28 70.456 12.92C71.464 13.544 72.272 14.536 72.88 15.896L69.736 17.528C69.512 16.824 69.16 16.264 68.68 15.848C68.216 15.416 67.528 15.2 66.616 15.2C65.544 15.2 64.68 15.552 64.024 16.256C63.384 16.944 63.064 17.952 63.064 19.28V21.968C63.064 23.296 63.384 24.312 64.024 25.016C64.68 25.704 65.544 26.048 66.616 26.048C67.512 26.048 68.224 25.808 68.752 25.328C69.296 24.832 69.696 24.24 69.952 23.552L72.928 25.28C72.304 26.56 71.48 27.552 70.456 28.256C69.448 28.944 68.168 29.288 66.616 29.288ZM85.6133 29L84.4133 25.016H78.8213L77.6213 29H73.9253L79.4453 12.248H83.9573L89.4053 29H85.6133ZM81.6533 15.56H81.5333L79.6853 21.92H83.5253L81.6533 15.56ZM97.147 29.288C95.675 29.288 94.427 29.04 93.403 28.544C92.379 28.032 91.507 27.376 90.787 26.576L93.187 24.152C94.323 25.432 95.723 26.072 97.387 26.072C98.283 26.072 98.947 25.888 99.379 25.52C99.811 25.152 100.027 24.664 100.027 24.056C100.027 23.592 99.899 23.208 99.643 22.904C99.387 22.584 98.867 22.368 98.083 22.256L96.427 22.04C94.651 21.816 93.347 21.28 92.515 20.432C91.699 19.584 91.291 18.456 91.291 17.048C91.291 16.296 91.435 15.608 91.723 14.984C92.011 14.36 92.419 13.824 92.947 13.376C93.491 12.928 94.147 12.584 94.915 12.344C95.699 12.088 96.587 11.96 97.579 11.96C98.843 11.96 99.955 12.16 100.915 12.56C101.875 12.96 102.699 13.544 103.387 14.312L100.963 16.76C100.563 16.296 100.075 15.92 99.499 15.632C98.939 15.328 98.227 15.176 97.363 15.176C96.547 15.176 95.939 15.32 95.539 15.608C95.139 15.896 94.939 16.296 94.939 16.808C94.939 17.384 95.091 17.8 95.395 18.056C95.715 18.312 96.227 18.496 96.931 18.608L98.587 18.872C100.315 19.144 101.595 19.68 102.427 20.48C103.259 21.264 103.675 22.384 103.675 23.84C103.675 24.64 103.531 25.376 103.243 26.048C102.955 26.72 102.531 27.296 101.971 27.776C101.427 28.256 100.747 28.632 99.931 28.904C99.115 29.16 98.187 29.288 97.147 29.288ZM106.7 29V12.248H118.1V15.488H110.348V18.92H116.996V22.136H110.348V25.76H118.1V29H106.7ZM128.262 15.488V29H124.614V15.488H120.078V12.248H132.798V15.488H128.262ZM141.404 29.288C140.3 29.288 139.292 29.104 138.38 28.736C137.468 28.368 136.692 27.824 136.052 27.104C135.412 26.368 134.916 25.464 134.564 24.392C134.212 23.304 134.036 22.048 134.036 20.624C134.036 19.2 134.212 17.952 134.564 16.88C134.916 15.792 135.412 14.888 136.052 14.168C136.692 13.432 137.468 12.88 138.38 12.512C139.292 12.144 140.3 11.96 141.404 11.96C142.508 11.96 143.516 12.144 144.428 12.512C145.34 12.88 146.116 13.432 146.756 14.168C147.396 14.888 147.892 15.792 148.244 16.88C148.596 17.952 148.772 19.2 148.772 20.624C148.772 22.048 148.596 23.304 148.244 24.392C147.892 25.464 147.396 26.368 146.756 27.104C146.116 27.824 145.34 28.368 144.428 28.736C143.516 29.104 142.508 29.288 141.404 29.288ZM141.404 26.048C142.508 26.048 143.364 25.688 143.972 24.968C144.596 24.248 144.908 23.216 144.908 21.872V19.376C144.908 18.032 144.596 17 143.972 16.28C143.364 15.56 142.508 15.2 141.404 15.2C140.3 15.2 139.436 15.56 138.812 16.28C138.204 17 137.9 18.032 137.9 19.376V21.872C137.9 23.216 138.204 24.248 138.812 24.968C139.436 25.688 140.3 26.048 141.404 26.048ZM158.537 29.288C157.433 29.288 156.425 29.104 155.513 28.736C154.601 28.368 153.825 27.824 153.185 27.104C152.545 26.368 152.049 25.464 151.697 24.392C151.345 23.304 151.169 22.048 151.169 20.624C151.169 19.2 151.345 17.952 151.697 16.88C152.049 15.792 152.545 14.888 153.185 14.168C153.825 13.432 154.601 12.88 155.513 12.512C156.425 12.144 157.433 11.96 158.537 11.96C159.641 11.96 160.649 12.144 161.561 12.512C162.473 12.88 163.249 13.432 163.889 14.168C164.529 14.888 165.025 15.792 165.377 16.88C165.729 17.952 165.905 19.2 165.905 20.624C165.905 22.048 165.729 23.304 165.377 24.392C165.025 25.464 164.529 26.368 163.889 27.104C163.249 27.824 162.473 28.368 161.561 28.736C160.649 29.104 159.641 29.288 158.537 29.288ZM158.537 26.048C159.641 26.048 160.497 25.688 161.105 24.968C161.729 24.248 162.041 23.216 162.041 21.872V19.376C162.041 18.032 161.729 17 161.105 16.28C160.497 15.56 159.641 15.2 158.537 15.2C157.433 15.2 156.569 15.56 155.945 16.28C155.337 17 155.033 18.032 155.033 19.376V21.872C155.033 23.216 155.337 24.248 155.945 24.968C156.569 25.688 157.433 26.048 158.537 26.048ZM168.95 29V12.248H172.598V25.76H178.982V29H168.95ZM187.1 29.288C185.628 29.288 184.38 29.04 183.356 28.544C182.332 28.032 181.46 27.376 180.74 26.576L183.14 24.152C184.276 25.432 185.676 26.072 187.34 26.072C188.236 26.072 188.9 25.888 189.332 25.52C189.764 25.152 189.98 24.664 189.98 24.056C189.98 23.592 189.852 23.208 189.596 22.904C189.34 22.584 188.82 22.368 188.036 22.256L186.38 22.04C184.604 21.816 183.3 21.28 182.468 20.432C181.652 19.584 181.244 18.456 181.244 17.048C181.244 16.296 181.388 15.608 181.676 14.984C181.964 14.36 182.372 13.824 182.9 13.376C183.444 12.928 184.1 12.584 184.868 12.344C185.652 12.088 186.54 11.96 187.532 11.96C188.796 11.96 189.908 12.16 190.868 12.56C191.828 12.96 192.652 13.544 193.34 14.312L190.916 16.76C190.516 16.296 190.028 15.92 189.452 15.632C188.892 15.328 188.18 15.176 187.316 15.176C186.5 15.176 185.892 15.32 185.492 15.608C185.092 15.896 184.892 16.296 184.892 16.808C184.892 17.384 185.044 17.8 185.348 18.056C185.668 18.312 186.18 18.496 186.884 18.608L188.54 18.872C190.268 19.144 191.548 19.68 192.38 20.48C193.212 21.264 193.628 22.384 193.628 23.84C193.628 24.64 193.484 25.376 193.196 26.048C192.908 26.72 192.484 27.296 191.924 27.776C191.38 28.256 190.7 28.632 189.884 28.904C189.068 29.16 188.14 29.288 187.1 29.288ZM198.525 29.264C197.805 29.264 197.269 29.088 196.917 28.736C196.581 28.368 196.413 27.904 196.413 27.344V26.864C196.413 26.304 196.581 25.848 196.917 25.496C197.269 25.128 197.805 24.944 198.525 24.944C199.245 24.944 199.773 25.128 200.109 25.496C200.461 25.848 200.637 26.304 200.637 26.864V27.344C200.637 27.904 200.461 28.368 200.109 28.736C199.773 29.088 199.245 29.264 198.525 29.264ZM204.082 29V12.248H207.73V25.76H214.114V29H204.082ZM222.641 21.704L220.457 24.344V29H216.809V12.248H220.457V20.216H220.601L222.977 16.976L226.745 12.248H230.873L225.233 19.136L231.377 29H227.081L222.641 21.704Z" fill="#591FF9"/>
<path d="M35.4326 18.4401C34.7829 19.0393 34.2854 19.7625 33.9754 20.558C33.6655 21.3536 33.5508 22.202 33.6394 23.0429L33.6086 23.0146C33.6998 24.0044 33.5541 25.0004 33.1819 25.9333C32.8097 26.8661 32.22 27.7133 31.4539 28.4157C30.6876 29.118 29.7634 29.6587 28.7457 29.9997C27.7281 30.3409 26.6414 30.4745 25.5617 30.3909L25.5926 30.4191C24.301 30.309 23.0038 30.5665 21.8777 31.1569C20.7518 31.7473 19.8518 32.6416 19.3006 33.718C18.7495 34.7945 18.5738 36.0004 18.7977 37.1717C19.0217 38.3429 19.6342 39.4223 20.5519 40.2627C21.4695 41.1031 22.6476 41.6637 23.9254 41.8678C25.2034 42.0721 26.5188 41.9099 27.6926 41.4037C28.8663 40.8974 29.8411 40.0718 30.4841 39.0391C31.1271 38.0063 31.4071 36.8171 31.2857 35.6331L31.3183 35.6614C31.2271 34.6717 31.3726 33.6756 31.7448 32.7427C32.117 31.8099 32.7069 30.9627 33.473 30.2603C34.2393 29.558 35.1634 29.0173 36.181 28.6763C37.1988 28.3351 38.2853 28.2015 39.3651 28.2851L39.3326 28.2569C40.3875 28.3438 41.4495 28.1852 42.42 27.7958C43.3903 27.4064 44.2378 26.7987 44.8838 26.0292C45.5297 25.2597 45.9535 24.353 46.1153 23.3934C46.2773 22.4338 46.1724 21.4523 45.8103 20.5396C45.4483 19.627 44.8407 18.813 44.0441 18.173C43.2475 17.533 42.2875 17.0876 41.2531 16.8783C40.2187 16.669 39.1433 16.7023 38.1267 16.9753C37.1102 17.2484 36.1853 17.7522 35.4377 18.4401H35.4326Z" fill="#8E3F5A"/>
<path d="M22.7863 26.7137L22.7537 26.6854C23.6714 26.7701 24.5981 26.6669 25.4671 26.3831C26.3359 26.0993 27.1251 25.6422 27.7776 25.0445C28.4299 24.4469 28.9294 23.7238 29.2395 22.9275C29.5498 22.1313 29.6631 21.2819 29.5714 20.4406L29.604 20.4689C29.5128 19.479 29.6585 18.483 30.0305 17.5501C30.4027 16.6173 30.9926 15.7701 31.7587 15.0677C32.525 14.3654 33.4491 13.8247 34.4667 13.4837C35.4845 13.1425 36.571 13.009 37.6509 13.0926L37.6183 13.0643C38.91 13.1755 40.2075 12.9187 41.3342 12.329C42.461 11.7393 43.3617 10.8454 43.9137 9.76916C44.4657 8.69295 44.6421 7.48683 44.4189 6.31531C44.1957 5.1438 43.5837 4.06394 42.6662 3.22301C41.7489 2.38209 40.5708 1.82103 39.2928 1.6164C38.0148 1.41175 36.6991 1.57347 35.525 2.0795C34.3509 2.58551 33.3758 3.41122 32.7324 4.44398C32.089 5.47672 31.8089 6.66624 31.9303 7.85028L31.8994 7.82043C31.9908 8.81025 31.8454 9.80645 31.4734 10.7394C31.1014 11.6724 30.5115 12.5197 29.7454 13.2222C28.9791 13.9245 28.0548 14.4652 27.037 14.8062C26.0191 15.1472 24.9324 15.2805 23.8526 15.1967L23.8834 15.2266C22.9658 15.1419 22.0389 15.2451 21.1701 15.5289C20.3013 15.8126 19.512 16.2698 18.8595 16.8675C18.2071 17.4651 17.7077 18.1882 17.3974 18.9845C17.0873 19.7807 16.974 20.6301 17.0657 21.4714L17.0349 21.4431C17.1257 22.4328 16.9798 23.4288 16.6077 24.3616C16.2353 25.2942 15.6456 26.1414 14.8795 26.8437C14.1133 27.5459 13.1892 28.0865 12.1717 28.4278C11.1542 28.769 10.0677 28.9027 8.988 28.8194L9.01886 28.8477C7.72718 28.7365 6.42952 28.9932 5.30287 29.583C4.17624 30.1727 3.27547 31.0666 2.72345 32.1428C2.17142 33.2191 1.99498 34.4252 2.21824 35.5967C2.44149 36.7682 3.05356 37.8481 3.97092 38.6889C4.8883 39.53 6.06633 40.091 7.34435 40.2956C8.62236 40.5002 9.93813 40.3385 11.1122 39.8325C12.2862 39.3265 13.2614 38.5008 13.9047 37.4681C14.5481 36.4352 14.8282 35.2458 14.7069 34.0617L14.7394 34.09C14.6482 33.1002 14.7939 32.1042 15.1661 31.1712C15.5381 30.2384 16.128 29.3913 16.8941 28.6888C17.6604 27.9866 18.5846 27.4458 19.6022 27.1048C20.6199 26.7637 21.7065 26.6301 22.7863 26.7137Z" fill="#494582"/>
<path d="M11.2971 23.5599C11.9469 22.9608 12.4443 22.2377 12.754 21.442C13.0637 20.6464 13.1779 19.7979 13.0886 18.9571L13.1211 18.9854C13.0299 17.9954 13.1756 16.999 13.5479 16.0659C13.9203 15.1328 14.5104 14.2854 15.277 13.583C16.0437 12.8806 16.9682 12.3401 17.9863 11.9991C19.0044 11.6582 20.0914 11.5251 21.1714 11.6091L21.1389 11.5809C22.4301 11.6918 23.7273 11.4348 24.8534 10.8452C25.9795 10.2555 26.8797 9.36181 27.4315 8.28593C27.9831 7.21004 28.1594 6.00436 27.9362 4.83328C27.713 3.66221 27.101 2.58276 26.184 1.74214C25.267 0.901521 24.0893 0.340647 22.8118 0.136015C21.5343 -0.0686317 20.219 0.0929425 19.0454 0.59866C17.8716 1.10438 16.8967 1.92964 16.2535 2.96192C15.6101 3.99419 15.3298 5.18322 15.4509 6.36686L15.42 6.33857C15.5112 7.32833 15.3655 8.32442 14.9933 9.25728C14.6211 10.1901 14.0315 11.0373 13.2652 11.7397C12.499 12.442 11.5748 12.9827 10.5572 13.3237C9.5395 13.6649 8.45289 13.7985 7.37314 13.7149L7.404 13.7431C6.34898 13.6564 5.28713 13.8153 4.31688 14.2048C3.34663 14.5944 2.49934 15.2022 1.85356 15.9719C1.20777 16.7414 0.784373 17.6481 0.622579 18.6077C0.460802 19.5673 0.56587 20.5488 0.928048 21.4612C1.29022 22.3737 1.89782 23.1876 2.6945 23.8275C3.49118 24.4675 4.45118 24.9127 5.48554 25.122C6.51989 25.3312 7.59514 25.2977 8.61166 25.0247C9.62817 24.7516 10.553 24.2478 11.3006 23.5599H11.2971Z" fill="#113322"/>
</svg>
